# xmcd
#
# Track frame offsets:
# 150
# 15600
# 26475
# 40875
# 54150
# 73350
# 89400
# 104850
# 118575
# 132600
# 152325
# 169275
#
# Disc length: 2409 seconds
#
#
# Revision: 2
# Processed by: cddbd v1.5.1PL0 Copyright (c) Steve Scherf et al.
# Submitted via: KELLER's_Musik_Katalog 2005 
#
DISCID=a509670c
DTITLE=Various Artist - Country Blues Guitar
DYEAR=1997
DGENRE=Country Blues
TTITLE0=MISSISSIPPI FRED McDOWELL - Done Left Here
TTITLE1=RORY BLOCK - Walkin' Blues
TTITLE2=JOHN HAMMOND - Honeymoon Blues
TTITLE3=PAUL RISHELL and ANNIE RAINES - Blues For Tampa Red
TTITLE4=PAUL GEREMIA - Broke Down Engine
TTITLE5=JOHNNY SHINES - Going To The River
TTITLE6=FRANK HOVINGTON - Mean Old Frisco
TTITLE7=DAVID BROMBERG - Long Tall Mama
TTITLE8=KRISTINA OLSEN - John Henry
TTITLE9=BOWLING GREEN JOHN CEPHAS and HARMONICA PHIL WIGGINS - Reno Factory
TTITLE10=ROY BOOK BINDER - Mississippi Blues
TTITLE11=ETTA BAKER - One-Dime Blues
EXTD=Label: EASY DISC\nBestellnummer: 0687051\nFirma: in-akustik GmbH and Co. KG\n\n\n Für freedb bereitgestelt von:\n    KELLER'S Musik-Katalog 2005 2005
EXTT0=
EXTT1=
EXTT2=
EXTT3=
EXTT4=
EXTT5=
EXTT6=
EXTT7=
EXTT8=
EXTT9=
EXTT10=
EXTT11=
PLAYORDER=
